<svg width="32" height="32" viewBox="0 0 32 32" fill="none" xmlns="http://www.w3.org/2000/svg">
<path d="M13.0859 23.1641C13.0859 22.5427 13.5896 22.0391 14.2109 22.0391H17.9658C18.5871 22.0391 19.0908 22.5427 19.0908 23.1641V28.5717H13.0859V23.1641Z" stroke="#222222" stroke-width="1.75"/>
<mask id="path-2-inside-1_239_3690" fill="white">
<rect x="2.17188" y="2.19531" width="27.6537" height="27.608" rx="1"/>
</mask>
<rect x="2.17188" y="2.19531" width="27.6537" height="27.608" rx="1" stroke="#222222" stroke-width="3.5" mask="url(#path-2-inside-1_239_3690)"/>
<line x1="2.76562" y1="8.85938" x2="12.8672" y2="8.85938" stroke="#222222" stroke-width="1.75"/>
<line x1="18.9375" y1="8.85938" x2="29.0391" y2="8.85938" stroke="#222222" stroke-width="1.75"/>
<line x1="16.3832" y1="5.37607" x2="12.2716" y2="9.08762" stroke="#222222" stroke-width="1.75"/>
<line x1="19.5032" y1="9.07368" x2="15.2404" y2="5.35826" stroke="#222222" stroke-width="1.75"/>
<circle cx="8.02344" cy="13.9531" r="1" fill="#222222"/>
<circle cx="16.0391" cy="13.9531" r="1" fill="#222222"/>
<circle cx="24.0547" cy="13.9531" r="1" fill="#222222"/>
<circle cx="24.0547" cy="17.9453" r="1" fill="#222222"/>
<circle cx="24.0547" cy="21.9453" r="1" fill="#222222"/>
<circle cx="8.02344" cy="17.9453" r="1" fill="#222222"/>
<circle cx="8.02344" cy="21.9453" r="1" fill="#222222"/>
</svg>
